<svg width="60" height="60" viewBox="0 0 60 60" fill="none" xmlns="http://www.w3.org/2000/svg">
<g clip-path="url(#clip0_317_2690)">
<path fill-rule="evenodd" clip-rule="evenodd" d="M30 0C13.4531 0 0 13.4531 0 30C0 46.5469 13.4531 60 30 60C46.5469 60 60 46.5469 60 30C60 13.4531 46.5469 0 30 0Z" fill="#4BAE4F"/>
<path d="M24.2227 43.7227C20.3906 39.8906 16.582 36.0234 12.7383 32.1914C12.3164 31.7695 12.3164 31.0664 12.7383 30.6445L17.1562 26.2266C17.5781 25.8047 18.2813 25.8047 18.7031 26.2266L25.0195 32.543L41.2617 16.2891C41.6953 15.8672 42.3867 15.8672 42.8203 16.2891L47.25 20.7188C47.6836 21.1523 47.6836 21.8438 47.25 22.2656L25.7695 43.7227C25.3477 44.1562 24.6562 44.1562 24.2227 43.7227Z" fill="white"/>
</g>
<defs>
<clipPath id="clip0_317_2690">
<rect width="60" height="60" fill="white"/>
</clipPath>
</defs>
</svg>
