<svg width="18" height="18" viewBox="0 0 18 18" fill="none" xmlns="http://www.w3.org/2000/svg">
<g clip-path="url(#clip0_268_1633)">
<path d="M8.34132 9.40171C8.13237 9.19262 7.88427 9.02676 7.61119 8.9136C7.33812 8.80043 7.04542 8.74219 6.74982 8.74219C6.45423 8.74219 6.16153 8.80043 5.88845 8.9136C5.61537 9.02676 5.36727 9.19262 5.15832 9.40171L0.0283203 14.5317C0.0976657 15.4723 0.519501 16.352 1.20947 16.995C1.89945 17.638 2.8067 17.9968 3.74982 17.9997H14.2498C14.9846 17.9996 15.703 17.7822 16.3146 17.375L8.34132 9.40171Z" fill="white"/>
<path d="M13.5 5.99999C14.3284 5.99999 15 5.32842 15 4.5C15 3.67157 14.3284 3 13.5 3C12.6716 3 12 3.67157 12 4.5C12 5.32842 12.6716 5.99999 13.5 5.99999Z" fill="white"/>
<path d="M14.25 0H3.75C2.7558 0.00119089 1.80267 0.396661 1.09966 1.09966C0.396661 1.80267 0.00119089 2.7558 0 3.75L0 12.4395L4.098 8.3415C4.44623 7.99318 4.85967 7.71686 5.31471 7.52835C5.76974 7.33983 6.25746 7.2428 6.75 7.2428C7.24254 7.2428 7.73026 7.33983 8.18529 7.52835C8.64033 7.71686 9.05377 7.99318 9.402 8.3415L17.3752 16.3148C17.7825 15.7031 17.9999 14.9848 18 14.25V3.75C17.9988 2.7558 17.6033 1.80267 16.9003 1.09966C16.1973 0.396661 15.2442 0.00119089 14.25 0V0ZM13.5 7.5C12.9067 7.5 12.3266 7.32405 11.8333 6.99441C11.3399 6.66476 10.9554 6.19623 10.7284 5.64805C10.5013 5.09987 10.4419 4.49667 10.5576 3.91473C10.6734 3.33279 10.9591 2.79824 11.3787 2.37868C11.7982 1.95912 12.3328 1.6734 12.9147 1.55764C13.4967 1.44189 14.0999 1.5013 14.6481 1.72836C15.1962 1.95542 15.6648 2.33994 15.9944 2.83329C16.3241 3.32664 16.5 3.90666 16.5 4.5C16.5 5.29565 16.1839 6.05871 15.6213 6.62132C15.0587 7.18393 14.2956 7.5 13.5 7.5Z" fill="white"/>
</g>
<defs>
<clipPath id="clip0_268_1633">
<rect width="18" height="18" fill="white"/>
</clipPath>
</defs>
</svg>
