<svg width="22" height="22" viewBox="0 0 22 22" fill="none" xmlns="http://www.w3.org/2000/svg">
<path d="M12.4609 0.376953V4.29639H16.3802L12.4609 0.376953Z" fill="#11B08E"/>
<path d="M15.6195 7.73438C16.0105 7.73438 16.3915 7.77838 16.7578 7.86126V5.58594H11.8164C11.4605 5.58594 11.1719 5.29736 11.1719 4.94141V0H2.36328C1.06017 0 0 1.06017 0 2.36328V19.6367C0 20.9398 1.06017 22 2.36328 22H14.3945C15.6976 22 16.7578 20.9398 16.7578 19.6367V17.92C16.3915 18.0029 16.0105 18.0469 15.6195 18.0469C12.7763 18.0469 10.4632 15.7338 10.4632 12.8906C10.4632 10.0475 12.7763 7.73438 15.6195 7.73438ZM8.80859 15.8984H3.22266C2.8667 15.8984 2.57812 15.6099 2.57812 15.2539C2.57812 14.898 2.8667 14.6094 3.22266 14.6094H8.80859C9.16455 14.6094 9.45312 14.898 9.45312 15.2539C9.45312 15.6099 9.16455 15.8984 8.80859 15.8984ZM8.80859 13.3203H3.22266C2.8667 13.3203 2.57812 13.0317 2.57812 12.6758C2.57812 12.3198 2.8667 12.0312 3.22266 12.0312H8.80859C9.16455 12.0312 9.45312 12.3198 9.45312 12.6758C9.45312 13.0317 9.16455 13.3203 8.80859 13.3203ZM8.80859 10.7422H3.22266C2.8667 10.7422 2.57812 10.4536 2.57812 10.0977C2.57812 9.7417 2.8667 9.45312 3.22266 9.45312H8.80859C9.16455 9.45312 9.45312 9.7417 9.45312 10.0977C9.45312 10.4536 9.16455 10.7422 8.80859 10.7422ZM10.5273 8.16406H3.22266C2.8667 8.16406 2.57812 7.87548 2.57812 7.51953C2.57812 7.16358 2.8667 6.875 3.22266 6.875H10.5273C10.8833 6.875 11.1719 7.16358 11.1719 7.51953C11.1719 7.87548 10.8833 8.16406 10.5273 8.16406Z" fill="#11B08E"/>
<path d="M21.8109 18.1709L18.7702 15.1302C19.2209 14.4978 19.4863 13.7246 19.4863 12.8906C19.4863 10.7583 17.7515 9.02344 15.6191 9.02344C13.4868 9.02344 11.752 10.7583 11.752 12.8906C11.752 15.023 13.4868 16.7578 15.6191 16.7578C16.4532 16.7578 17.2263 16.4924 17.8587 16.0417L20.8994 19.0823C21.0252 19.2082 21.1902 19.2711 21.3551 19.2711C21.52 19.2711 21.685 19.2082 21.8108 19.0823C22.0626 18.8307 22.0626 18.4226 21.8109 18.1709Z" fill="#347AE2"/>
</svg>
