<svg width="22" height="22" viewBox="0 0 22 22" fill="none" xmlns="http://www.w3.org/2000/svg">
<g clip-path="url(#clip0_268_1517)">
<path d="M21.317 8.14708C20.5159 7.47359 19.2902 7.55381 18.5947 8.38311L18.1768 8.87759L21.1392 11.3633L21.5383 10.8706C22.2248 10.0542 22.1379 8.83493 21.317 8.14708Z" fill="#347AE2"/>
<path d="M12.9495 15.0625L12.7291 15.3234C12.5377 15.5525 12.3999 15.8263 12.3307 16.1165L11.7315 18.6241C11.6748 18.8614 11.7573 19.1106 11.9442 19.2674C12.1261 19.4203 12.3827 19.4646 12.6146 19.3656L14.9805 18.3396C15.2543 18.2206 15.4998 18.0375 15.6912 17.8103L15.9124 17.5485L12.9495 15.0625Z" fill="#347AE2"/>
<path d="M17.3443 9.86133L13.7812 14.0772L16.7439 16.5632L20.3068 12.347L17.3443 9.86133Z" fill="#347AE2"/>
<path d="M16.1574 2.85668L13.7089 0.530309C13.4775 0.310867 13.1927 0.181617 12.8926 0.0976562V3.86627H16.719C16.6391 3.48342 16.444 3.12876 16.1574 2.85668Z" fill="#11B08E"/>
<path d="M11.0773 15.8164C11.1925 15.3343 11.4222 14.8779 11.7407 14.4965L16.7598 8.55761V5.15625H12.248C11.8918 5.15625 11.6035 4.86797 11.6035 4.51172V0H1.93555C0.86932 0 0.00195312 0.867367 0.00195312 1.93359V20.0664C0.00195312 21.1326 0.86932 22 1.93555 22H14.8262C15.8924 22 16.7598 21.1326 16.7598 20.0664V18.5428L16.6761 18.6418C16.3595 19.0189 15.951 19.3229 15.4959 19.5212L13.128 20.5478C12.4606 20.836 11.6881 20.7339 11.1164 20.2551C10.5518 19.7811 10.3069 19.0416 10.4781 18.324L11.0773 15.8164ZM3.22461 3.86719H9.66992C10.0262 3.86719 10.3145 4.15546 10.3145 4.51172C10.3145 4.86797 10.0262 5.15625 9.66992 5.15625H3.22461C2.86836 5.15625 2.58008 4.86797 2.58008 4.51172C2.58008 4.15546 2.86836 3.86719 3.22461 3.86719ZM3.22461 7.77734H13.5371C13.8934 7.77734 14.1816 8.06562 14.1816 8.42188C14.1816 8.77813 13.8934 9.06641 13.5371 9.06641H3.22461C2.86836 9.06641 2.58008 8.77813 2.58008 8.42188C2.58008 8.06562 2.86836 7.77734 3.22461 7.77734ZM8.38086 16.8008H3.22461C2.86836 16.8008 2.58008 16.5125 2.58008 16.1562C2.58008 15.8 2.86836 15.5117 3.22461 15.5117H8.38086C8.73711 15.5117 9.02539 15.8 9.02539 16.1562C9.02539 16.5125 8.73711 16.8008 8.38086 16.8008ZM3.22461 12.9336C2.86836 12.9336 2.58008 12.6453 2.58008 12.2891C2.58008 11.9328 2.86836 11.6445 3.22461 11.6445H10.959C11.3152 11.6445 11.6035 11.9328 11.6035 12.2891C11.6035 12.6453 11.3152 12.9336 10.959 12.9336H3.22461Z" fill="#11B08E"/>
</g>
<defs>
<clipPath id="clip0_268_1517">
<rect width="22" height="22" fill="white"/>
</clipPath>
</defs>
</svg>
