<svg width="20" height="20" viewBox="0 0 20 20" fill="none" xmlns="http://www.w3.org/2000/svg">
<path d="M8.15275 3.55632C8.20368 3.65999 8.23732 3.771 8.25239 3.88513L8.53082 8.02505L8.66903 10.1059C8.67046 10.3199 8.70403 10.5325 8.76867 10.7368C8.9356 11.1333 9.33716 11.3854 9.77405 11.3678L16.4313 10.9323C16.7196 10.9276 16.998 11.0354 17.2052 11.2321C17.3779 11.396 17.4894 11.6104 17.5246 11.841L17.5364 11.981C17.2609 15.7957 14.4592 18.9774 10.6524 19.7988C6.84555 20.6201 2.94186 18.8851 1.06071 15.5357C0.518387 14.5626 0.17965 13.493 0.0643819 12.3898C0.0162286 12.0632 -0.00497452 11.7333 0.000979226 11.4033C-0.00496595 7.31353 2.90747 3.77775 6.98433 2.92536C7.47501 2.84896 7.95603 3.10871 8.15275 3.55632Z" fill="#11B08E"/>
<path d="M10.8706 0.000819186C15.4304 0.116827 19.2629 3.39579 20.0006 7.81229L19.9935 7.84488L19.9734 7.89227L19.9762 8.02236C19.9657 8.19471 19.8992 8.36054 19.7845 8.49448C19.6651 8.63401 19.5019 8.72903 19.3221 8.76591L19.2125 8.78095L11.5318 9.27861C11.2763 9.3038 11.0219 9.22142 10.8319 9.05195C10.6736 8.91073 10.5724 8.72009 10.5438 8.51468L10.0282 0.845062C10.0192 0.819129 10.0192 0.791015 10.0282 0.765082C10.0353 0.553672 10.1283 0.35384 10.2866 0.21023C10.4449 0.0666198 10.6552 -0.00880037 10.8706 0.000819186Z" fill="#347AE2"/>
</svg>
