<svg width="211" height="210" viewBox="0 0 211 210" fill="none" xmlns="http://www.w3.org/2000/svg">
<g clip-path="url(#clip0_314_2382)">
<path d="M91.5215 28.0782L106.344 23.1554L105.985 13.4141L91.5215 18.1978V28.0782Z" fill="#CD9933"/>
<path d="M41.6335 34.7031L27.8174 39.5332L27.933 49.5062L41.6335 44.6877V34.7031Z" fill="#CD9933"/>
<path d="M54.791 40.3089L78.0184 32.583V22.668L54.791 30.3591V40.3089Z" fill="#CD9933"/>
<path d="M120.437 28.3203L105.627 23.386L105.985 13.6562L120.437 18.44V28.3203Z" fill="#B0842D"/>
<path d="M170.326 34.9453L184.431 39.7638L184.316 49.7368L170.326 44.9299V34.9453Z" fill="#B0842D"/>
<path d="M157.18 40.552L134.728 32.0733V22.1582L157.18 30.5906V40.552Z" fill="#B0842D"/>
<path d="M163.782 43.1699L160.695 37.0541L165.031 33.6719L168.338 39.5097L163.782 43.1699Z" fill="#B0842D"/>
<path d="M126.785 31.0078L123.687 24.892L128.034 21.5098L131.34 27.336L126.785 31.0078Z" fill="#B0842D"/>
<path d="M84.1221 21.3125L81.0352 27.4283L85.3708 30.8106L88.6774 24.9843L84.1221 21.3125Z" fill="#CD9933"/>
<path d="M47.1249 33.4863L44.0264 39.6022L48.3735 42.9844L51.6802 37.1466L47.1249 33.4863Z" fill="#CD9933"/>
<path d="M13.7935 98.0272L9.66602 96.8457V115.077L13.7935 109.321V98.0272Z" fill="white"/>
<path d="M13.7935 64.8991V48.8219C13.7935 40.4358 19.1003 32.9763 27.0085 30.2312L99.315 5.21185C101.385 4.49371 103.547 4.13463 105.72 4.13463C107.894 4.13463 110.067 4.49371 112.137 5.21185L184.328 30.2312C192.224 32.9647 197.543 40.4358 197.543 48.8103V49.5169L201.578 46.7138C200.757 37.4474 194.583 29.3972 185.68 26.3161L113.49 1.2968C108.483 -0.440656 102.968 -0.429073 97.9623 1.2968L25.6673 26.3161C16.0943 29.6288 9.66602 38.6752 9.66602 48.8103V67.459L13.7935 64.8875V64.8991Z" fill="white"/>
<path d="M76.4808 180.811L26.8813 163.239C19.0541 160.471 13.7935 153.012 13.7935 144.695V134.004L9.66602 139.923V144.707C9.66602 154.772 16.0365 163.795 25.5055 167.143L72.8157 183.904L76.4923 180.811H76.4808Z" fill="white"/>
<path d="M197.543 121.25V144.694C197.543 153.011 192.283 160.458 184.455 163.238L112.207 188.837C108.414 190.18 104.275 190.308 100.414 189.231L96.7256 192.37L97.743 192.729C100.298 193.632 102.98 194.084 105.663 194.084C108.345 194.084 111.027 193.632 113.582 192.729L185.831 167.13C195.3 163.771 201.671 154.76 201.671 144.694V114.08L197.543 121.25Z" fill="white"/>
<path d="M50.4319 70.2286C50.4319 72.4989 48.5358 75.8811 44.732 80.3754C40.9398 84.8811 37.9338 87.1283 35.737 87.1283C33.0085 85.4487 29.8522 83.8503 26.2565 82.3329C25.5628 82.3329 23.7823 84.2209 20.9035 87.997C18.0362 91.773 15.6429 93.6611 13.7352 93.6611C12.29 93.6611 9.6771 92.7344 5.908 90.8696C1.96548 88.9584 0 87.441 0 86.3406C8.52093 75.4873 13.3075 70.0549 14.348 70.0549C14.8105 70.0549 16.6488 71.0279 19.8745 72.9738C23.0886 74.9198 25.135 75.8927 26.0021 75.8927C26.638 75.8927 28.8001 73.6688 32.4767 69.2325C36.1533 64.7846 38.5234 62.5723 39.5639 62.5723C46.8131 66.0008 50.4319 68.5491 50.4319 70.2402V70.2286ZM53.646 121.715H50.3394C46.8593 121.715 44.0152 121.541 41.8185 121.194C40.7779 121.02 38.6853 120.267 35.5636 118.924C33.0085 117.765 30.199 117.186 27.1352 117.186C21.9787 117.186 16.5563 121.692 10.8795 130.692L8.61342 135.047C7.63068 136.843 6.57858 137.746 5.48022 137.746C4.6709 137.746 4.28937 137.306 4.34718 136.437C4.57841 134.109 5.38773 131.468 6.78668 128.514C16.7528 107.491 27.193 96.9854 38.0841 96.9854C44.4545 100.761 48.6283 102.649 50.6053 102.649H53.646V121.727V121.715Z" fill="white"/>
<path d="M83.4635 62.5709C83.4635 64.1346 80.9662 73.1462 75.9831 89.5709C73.0233 99.2659 68.5027 107.316 62.4213 113.698C57.3226 119.038 53.3801 121.714 50.5938 121.714V102.637H53.2067C58.9991 102.637 63.115 101.096 65.5545 98.0149C65.7279 96.9724 66.306 93.1385 67.2888 86.513C67.7512 83.3161 69.8439 78.6713 73.5436 72.5786C76.8502 67.1809 79.9141 62.9647 82.7582 59.9531C83.2207 60.706 83.4519 61.5747 83.4519 62.5709H83.4635Z" fill="white"/>
<path d="M121.317 101.722C121.317 107.699 120.646 113.224 119.316 118.274C116.877 127.564 114.333 134.271 111.663 138.394C110.275 140.606 107.581 143.444 103.581 146.931C100.101 149.954 93.9618 153.116 85.1518 156.429C77.2668 159.394 72.1681 160.877 69.8442 160.877C68.9771 160.877 68.3412 160.552 67.9365 159.915C68.2256 159.336 71.301 156.927 77.1512 152.688C84.6894 147.232 90.4817 142.784 94.5399 139.355C106.136 129.603 111.929 122.201 111.929 117.139C111.929 116.155 111.316 115.657 110.102 115.657C108.888 115.657 107.107 115.888 104.76 116.352C102.413 116.815 100.633 117.047 99.4073 117.047C92.7363 117.047 89.4065 113.074 89.4065 105.116C89.4065 102.44 91.4645 97.3323 95.5804 89.7802C99.812 81.9385 102.91 78.0234 104.888 78.0234C107.084 78.0234 110.16 79.8536 114.102 83.5138C118.912 87.9848 121.317 94.0543 121.317 101.722Z" fill="white"/>
<path d="M171.101 140.48H166.141C155.354 140.48 146.925 141.846 140.844 144.568C136.092 146.723 130.993 150.429 125.536 155.723C121.189 160.368 116.807 165.012 112.402 169.657C101.615 180.985 91.7068 189.754 82.6656 195.962C75.4165 200.954 66.144 205.02 54.8483 208.159C50.4433 209.375 47.7148 209.989 46.6742 209.989C46.0961 209.989 45.599 209.549 45.1943 208.68C46.0037 207.985 48.1541 206.642 51.6342 204.673C57.7734 201.128 66.8262 195.464 78.7578 187.692C91.4525 178.287 101.303 169.634 108.321 161.734L125.189 142.391C132.265 134.839 138.844 129.592 144.925 126.626C152.116 123.14 159.273 121.402 166.407 121.402H171.101V140.48Z" fill="white"/>
<path d="M211 59.5604C211 61.7727 209.069 65.1318 205.219 69.6608C201.369 74.1897 198.398 76.46 196.305 76.46C193.577 74.7805 190.421 73.182 186.825 71.6646C186.131 71.6646 184.351 73.5527 181.472 77.3287C178.605 81.1048 176.211 82.9928 174.304 82.9928C172.858 82.9928 170.269 82.0662 166.569 80.2013C162.569 78.2901 160.568 76.7728 160.568 75.6724C169.031 64.7612 173.818 59.294 174.916 59.294C175.379 59.294 177.217 60.267 180.443 62.2129C183.657 64.1588 185.703 65.1318 186.57 65.1318C187.206 65.1318 189.38 62.931 193.091 58.5063C196.803 54.0932 199.15 51.8809 200.132 51.8809C207.381 55.3094 211 57.8577 211 59.5488V59.5604ZM204.572 81.3365C204.572 82.9002 202.075 91.9117 197.092 108.336C194.132 118.031 189.611 126.082 183.53 132.464C178.431 137.804 174.315 140.479 171.182 140.479H167.355V121.402H174.315C180.108 121.402 184.223 119.862 186.663 116.78C186.836 115.738 187.414 111.904 188.397 105.279C188.86 102.082 190.952 97.4368 194.652 91.3442C197.959 85.9465 201.023 81.7303 203.867 78.7187C204.329 79.4716 204.56 80.3403 204.56 81.3365H204.572Z" fill="white"/>
<path d="M167.979 52.6678C157.62 59.1891 145.261 66.22 137.248 75.6717C136.323 76.7721 135.41 78.2547 134.901 79.6099C134.786 79.8995 133.884 81.857 134.705 80.8841C142.52 71.6524 154.834 64.7489 164.962 58.3783C166.511 57.4053 167.205 53.1427 167.968 52.6562L167.979 52.6678Z" fill="#CD9933"/>
<path d="M83.3825 124.958C83.3825 126.997 81.6714 130.043 78.2491 134.109C74.8269 138.175 72.133 140.202 70.1675 140.202C67.728 138.696 64.8954 137.271 61.6466 135.939C61.242 135.939 59.658 137.619 56.9063 140.989C54.1547 144.36 51.9926 146.04 50.4318 146.04C49.0444 146.04 46.6974 145.229 43.3908 143.595C39.8529 141.916 38.084 140.514 38.084 139.414C42.1421 134.132 44.2579 131.375 44.4313 131.144C47.8536 126.904 49.9925 124.785 50.8712 124.785C56.837 128.271 60.317 130.009 61.2998 130.009C62.1091 130.009 64.1671 128.016 67.4737 124.043C70.7803 120.07 72.8614 118.078 73.7285 118.078C80.1568 121.449 83.3825 123.742 83.3825 124.958Z" fill="white"/>
<path d="M115.709 60.7984C113.998 65.3969 109.13 69.8795 109.755 69.4278C112.645 67.2849 115.848 64.1806 117.767 60.6594C124.519 48.254 110.795 46.3544 109.674 56.3389C111.986 52.1112 118.264 53.9413 115.721 60.7984H115.709Z" fill="#CD9933"/>
<path d="M101.789 155.166C94.3083 159.869 86.4579 165.649 80.6886 172.471C80.0181 173.27 79.3591 174.336 79.0006 175.309C78.9197 175.517 78.2607 176.93 78.8619 176.235C84.504 169.564 93.3949 164.595 100.702 159.996C101.823 159.29 102.32 156.22 102.875 155.873L101.8 155.178L101.789 155.166Z" fill="#CD9933"/>
</g>
<defs>
<clipPath id="clip0_314_2382">
<rect width="211" height="210" fill="white"/>
</clipPath>
</defs>
</svg>
