<svg width="64" height="64" viewBox="0 0 64 64" fill="none" xmlns="http://www.w3.org/2000/svg">
<g clip-path="url(#clip0_314_2491)">
<path d="M27.7598 8.55695L32.2555 7.05667L32.1468 4.08789L27.7598 5.54581V8.55695Z" fill="#CD9933"/>
<path d="M12.6282 10.5762L8.4375 12.0482L8.47257 15.0876L12.6282 13.6191V10.5762Z" fill="#CD9933"/>
<path d="M16.6191 12.2845L23.6644 9.92993V6.9082L16.6191 9.25216V12.2845Z" fill="#CD9933"/>
<path d="M36.5313 8.63117L32.0391 7.12736L32.1478 4.16211L36.5313 5.62002V8.63117Z" fill="#B0842D"/>
<path d="M51.6631 10.6504L55.9414 12.1189L55.9064 15.1583L51.6631 13.6933V10.6504Z" fill="#B0842D"/>
<path d="M47.6755 12.3596L40.8652 9.77564V6.75391L47.6755 9.32379V12.3596Z" fill="#B0842D"/>
<path d="M49.6785 13.1564L48.7422 11.2925L50.0573 10.2617L51.0602 12.0409L49.6785 13.1564Z" fill="#B0842D"/>
<path d="M38.4564 9.44934L37.5166 7.58547L38.8352 6.55469L39.8381 8.33031L38.4564 9.44934Z" fill="#B0842D"/>
<path d="M25.5154 6.49609L24.5791 8.35997L25.8942 9.39074L26.8971 7.61512L25.5154 6.49609Z" fill="#CD9933"/>
<path d="M14.2943 10.2051L13.3545 12.0689L14.6731 13.0997L15.676 11.3206L14.2943 10.2051Z" fill="#CD9933"/>
<path d="M4.18359 29.8757L2.93164 29.5156V35.0719L4.18359 33.3175V29.8757Z" fill="#347AE2"/>
<path d="M4.18359 19.7794V14.8796C4.18359 12.3239 5.79323 10.0505 8.19191 9.2139L30.1237 1.58897C30.7515 1.37011 31.4073 1.26067 32.0665 1.26067C32.7258 1.26067 33.3851 1.37011 34.0128 1.58897L55.9096 9.2139C58.3048 10.047 59.9179 12.3239 59.9179 14.8761V15.0915L61.1418 14.2372C60.8928 11.4131 59.0202 8.95974 56.3199 8.02074L34.4231 0.395809C32.9047 -0.1337 31.2319 -0.13017 29.7134 0.395809L7.78512 8.02074C4.88145 9.03034 2.93164 11.7873 2.93164 14.8761V20.5595L4.18359 19.7758V19.7794Z" fill="#347AE2"/>
<path d="M23.1977 55.1048L8.15334 49.7497C5.7792 48.906 4.18359 46.6327 4.18359 44.0981V40.8398L2.93164 42.6437V44.1016C2.93164 47.1692 4.86391 49.9192 7.73602 50.9393L22.0861 56.0473L23.2012 55.1048H23.1977Z" fill="#347AE2"/>
<path d="M59.9176 36.9527V44.0975C59.9176 46.6321 58.322 48.9019 55.9479 49.7492L34.0336 57.5506C32.8833 57.9601 31.6279 57.9989 30.4566 57.6706L29.3379 58.6273L29.6465 58.7367C30.4215 59.012 31.2351 59.1497 32.0487 59.1497C32.8623 59.1497 33.6759 59.012 34.4509 58.7367L56.3652 50.9353C59.2373 49.9115 61.1696 47.1652 61.1696 44.0975V34.7676L59.9176 36.9527Z" fill="#347AE2"/>
<path d="M15.2969 21.4037C15.2969 22.0956 14.7218 23.1264 13.568 24.496C12.4178 25.8692 11.506 26.554 10.8397 26.554C10.0121 26.0422 9.05468 25.555 7.96405 25.0926C7.75364 25.0926 7.21359 25.668 6.34038 26.8188C5.47068 27.9696 4.74477 28.545 4.16614 28.545C3.72778 28.545 2.93523 28.2626 1.792 27.6943C0.596164 27.1118 0 26.6494 0 26.314C2.58455 23.0063 4.03638 21.3507 4.352 21.3507C4.49227 21.3507 5.04986 21.6473 6.02827 22.2403C7.00318 22.8334 7.62389 23.1299 7.8869 23.1299C8.07978 23.1299 8.73556 22.4521 9.85074 21.1001C10.9659 19.7446 11.6848 19.0703 12.0004 19.0703C14.1992 20.1152 15.2969 20.8918 15.2969 21.4072V21.4037ZM16.2718 37.0948H15.2688C14.2133 37.0948 13.3506 37.0419 12.6843 36.9359C12.3687 36.883 11.7339 36.6535 10.7871 36.2441C10.0121 35.8911 9.15989 35.7145 8.23057 35.7145C6.66652 35.7145 5.02181 37.0877 3.29994 39.8306L2.6126 41.1579C2.31452 41.7051 1.9954 41.9804 1.66225 41.9804C1.41677 41.9804 1.30104 41.8463 1.31858 41.5815C1.38871 40.872 1.63419 40.0671 2.05852 39.1669C5.08142 32.7599 8.24811 29.5581 11.5516 29.5581C13.4838 30.7089 14.7498 31.2843 15.3495 31.2843H16.2718V37.0983V37.0948Z" fill="#347AE2"/>
<path d="M25.3157 19.0693C25.3157 19.5458 24.5582 22.2922 23.0467 27.2979C22.149 30.2525 20.7778 32.7059 18.9332 34.651C17.3867 36.2783 16.1909 37.0938 15.3457 37.0938V31.2798H16.1383C17.8952 31.2798 19.1436 30.8103 19.8836 29.8713C19.9362 29.5536 20.1115 28.3851 20.4096 26.3659C20.5499 25.3916 21.1846 23.9761 22.3068 22.1193C23.3098 20.4742 24.2391 19.1893 25.1018 18.2715C25.242 18.5009 25.3122 18.7657 25.3122 19.0693H25.3157Z" fill="#347AE2"/>
<path d="M36.7976 31.0018C36.7976 32.8233 36.5942 34.5072 36.1909 36.0463C35.4509 38.8774 34.6794 40.9213 33.8694 42.178C33.4485 42.8522 32.6314 43.7171 31.4181 44.7796C30.3625 45.701 28.5004 46.6647 25.8281 47.6743C23.4365 48.578 21.89 49.0298 21.1851 49.0298C20.9221 49.0298 20.7292 48.931 20.6064 48.7368C20.6941 48.5603 21.6269 47.8261 23.4014 46.5341C25.6879 44.8714 27.4448 43.5159 28.6757 42.471C32.1931 39.4987 33.95 37.2429 33.95 35.7003C33.95 35.4003 33.7641 35.2485 33.3959 35.2485C33.0277 35.2485 32.4877 35.3191 31.7758 35.4603C31.0639 35.6015 30.5238 35.6721 30.1521 35.6721C28.1286 35.6721 27.1187 34.4613 27.1187 32.0361C27.1187 31.2207 27.7429 29.6639 28.9913 27.3623C30.2748 24.9725 31.2147 23.7793 31.8143 23.7793C32.4806 23.7793 33.4135 24.337 34.6093 25.4525C36.0681 26.8151 36.7976 28.6649 36.7976 31.0018Z" fill="#347AE2"/>
<path d="M51.8976 42.8121H50.3932C47.1213 42.8121 44.5648 43.2286 42.7202 44.0582C41.2789 44.7148 39.7323 45.8444 38.0771 47.4576C36.7585 48.8732 35.4294 50.2887 34.0933 51.7043C30.8214 55.1567 27.8161 57.8289 25.0737 59.721C22.8749 61.2425 20.0624 62.4816 16.6362 63.4382C15.3001 63.8089 14.4725 63.9959 14.1569 63.9959C13.9815 63.9959 13.8307 63.8618 13.708 63.5971C13.9535 63.3853 14.6058 62.9758 15.6613 62.3757C17.5235 61.2955 20.2693 59.5693 23.8884 57.2006C27.7389 54.3342 30.7267 51.6972 32.8554 49.2897L37.9719 43.3945C40.1181 41.0929 42.1135 39.4938 43.9581 38.5901C46.1394 37.5276 48.3101 36.998 50.4738 36.998H51.8976V42.8121Z" fill="#347AE2"/>
<path d="M64 18.151C64 18.8252 63.4144 19.8489 62.2466 21.2292C61.0788 22.6094 60.1775 23.3013 59.5428 23.3013C58.7152 22.7895 57.7578 22.3023 56.6672 21.8399C56.4568 21.8399 55.9167 22.4153 55.0435 23.5661C54.1738 24.7169 53.4479 25.2923 52.8693 25.2923C52.4309 25.2923 51.6454 25.0099 50.5232 24.4415C49.3098 23.8591 48.7031 23.3966 48.7031 23.0613C51.2701 19.736 52.722 18.0698 53.0551 18.0698C53.1954 18.0698 53.753 18.3663 54.7314 18.9594C55.7063 19.5524 56.327 19.8489 56.59 19.8489C56.7829 19.8489 57.4422 19.1782 58.5679 17.8297C59.6936 16.4848 60.4055 15.8105 60.7036 15.8105C62.9024 16.8554 64 17.6321 64 18.1474V18.151ZM62.0502 24.7875C62.0502 25.264 61.2927 28.0104 59.7813 33.0161C58.8835 35.9707 57.5123 38.4241 55.6677 40.3692C54.1212 41.9965 52.8728 42.812 51.9224 42.812H50.7616V36.998H52.8728C54.6297 36.998 55.8781 36.5285 56.6181 35.5895C56.6707 35.2718 56.846 34.1033 57.1441 32.0841C57.2844 31.1098 57.9191 29.6943 59.0413 27.8375C60.0443 26.1925 60.9736 24.9075 61.8363 23.9897C61.9765 24.2192 62.0467 24.4839 62.0467 24.7875H62.0502Z" fill="#347AE2"/>
<path d="M50.9512 16.0504C47.809 18.0378 44.0602 20.1806 41.63 23.0611C41.3494 23.3965 41.0724 23.8483 40.9181 24.2613C40.883 24.3496 40.6095 24.9462 40.8585 24.6496C43.2291 21.8362 46.9639 19.7323 50.0359 17.7907C50.5058 17.4942 50.7162 16.1951 50.9477 16.0469L50.9512 16.0504Z" fill="#CD9933"/>
<path d="M25.2916 38.0832C25.2916 38.7045 24.7726 39.6329 23.7346 40.8719C22.6965 42.111 21.8794 42.7287 21.2833 42.7287C20.5433 42.2698 19.6841 41.8356 18.6987 41.4297C18.576 41.4297 18.0955 41.9415 17.2609 42.9688C16.4263 43.996 15.7705 44.5079 15.2971 44.5079C14.8763 44.5079 14.1644 44.2608 13.1614 43.7631C12.0883 43.2512 11.5518 42.8241 11.5518 42.4887C12.7827 40.879 13.4244 40.0388 13.477 39.9682C14.515 38.6762 15.1638 38.0302 15.4303 38.0302C17.2399 39.0928 18.2954 39.6223 18.5935 39.6223C18.839 39.6223 19.4632 39.0151 20.4662 37.8043C21.4691 36.5935 22.1004 35.9863 22.3634 35.9863C24.3132 37.0136 25.2916 37.7125 25.2916 38.0832Z" fill="#347AE2"/>
<path d="M35.0962 18.5295C34.5772 19.9309 33.1008 21.2971 33.2902 21.1594C34.1669 20.5063 35.1383 19.5603 35.7204 18.4871C37.7684 14.7064 33.6058 14.1275 33.2656 17.1704C33.967 15.882 35.8712 16.4397 35.0997 18.5295H35.0962Z" fill="#CD9933"/>
<path d="M30.8738 47.2891C28.6049 48.7223 26.2238 50.4838 24.4738 52.563C24.2704 52.8065 24.0705 53.1313 23.9618 53.4278C23.9373 53.4914 23.7374 53.922 23.9198 53.7102C25.6311 51.6769 28.3279 50.1625 30.5442 48.7611C30.8844 48.5458 31.0352 47.6103 31.2035 47.5044L30.8773 47.2926L30.8738 47.2891Z" fill="#CD9933"/>
</g>
<defs>
<clipPath id="clip0_314_2491">
<rect width="64" height="64" fill="white"/>
</clipPath>
</defs>
</svg>
